<?xml version="1.0" standalone="no"?>
<!DOCTYPE svg PUBLIC "-//W3C//DTD SVG 20010904//EN"
 "http://www.w3.org/TR/2001/REC-SVG-20010904/DTD/svg10.dtd">
<svg version="1.0" xmlns="http://www.w3.org/2000/svg"
 width="538.000000pt" height="538.000000pt" viewBox="0 0 538.000000 538.000000"
 preserveAspectRatio="xMidYMid meet">
<metadata>
Created by potrace 1.14, written by Peter Selinger 2001-2017
</metadata>
<g transform="translate(0.000000,538.000000) scale(0.100000,-0.100000)"
fill="#000000" stroke="none">
<path d="M1145 4515 c-140 -61 -171 -83 -263 -189 -24 -28 -50 -112 -58 -185
-2 -25 -9 -50 -14 -56 -5 -6 -12 -26 -15 -44 -3 -18 -13 -50 -22 -70 -9 -20
-15 -42 -14 -48 1 -7 -6 -27 -15 -45 -10 -18 -19 -51 -21 -72 -3 -22 -8 -47
-13 -55 -9 -18 -25 -144 -22 -181 9 -117 7 -227 -4 -245 -7 -11 -15 -43 -19
-71 -4 -29 -13 -69 -20 -90 -7 -22 -10 -45 -5 -54 4 -8 10 -33 11 -55 5 -59
39 -149 91 -245 25 -47 57 -106 69 -132 12 -26 26 -45 31 -42 4 3 8 1 8 -4 0
-10 87 -114 149 -177 21 -22 47 -56 58 -75 10 -19 40 -57 65 -83 25 -26 51
-61 58 -77 8 -18 17 -27 26 -23 8 3 24 -7 37 -23 12 -16 30 -35 41 -44 10 -8
34 -30 54 -47 19 -18 38 -33 43 -33 4 0 32 -24 63 -54 30 -30 57 -52 59 -49 5
4 44 -47 63 -83 6 -11 15 -38 19 -60 4 -21 9 -46 11 -54 13 -63 18 -79 33
-110 10 -19 19 -55 20 -79 1 -25 4 -48 6 -51 4 -7 15 -127 20 -230 1 -30 7
-70 13 -88 16 -49 4 -93 -54 -205 -30 -56 -59 -113 -65 -127 -5 -13 -13 -27
-17 -30 -4 -3 -20 -31 -37 -63 -37 -72 -86 -131 -135 -162 -30 -19 -51 -23
-128 -24 -94 -1 -145 -12 -124 -25 17 -10 15 -26 -3 -26 -9 0 -18 7 -21 15
-10 24 -44 17 -74 -15 -32 -34 -47 -75 -24 -66 9 3 14 -1 14 -13 0 -30 11 -31
36 -3 l23 27 16 -22 c9 -13 24 -22 33 -22 15 1 15 2 0 6 -24 6 -24 36 0 31 9
-2 18 -14 20 -27 3 -18 8 -22 25 -16 55 16 92 23 99 19 5 -3 16 0 24 7 8 6 51
14 97 16 119 5 117 5 148 36 18 17 43 30 65 33 20 2 44 8 53 13 9 5 52 4 95 0
79 -9 80 -9 117 21 21 16 45 30 54 30 25 0 67 -32 61 -46 -3 -8 1 -14 10 -14
14 0 14 -2 0 -15 -15 -16 -56 -21 -56 -7 0 4 6 14 13 21 10 11 8 12 -8 4 -11
-5 -40 -11 -65 -12 -62 -3 -113 -17 -144 -42 -14 -11 -42 -25 -61 -30 -38 -11
-98 -56 -90 -69 3 -4 25 -2 50 5 37 12 45 12 45 1 0 -7 12 -14 28 -14 15 -1
38 -3 52 -4 41 -3 191 13 217 23 39 15 42 12 38 -38 -3 -40 -2 -44 7 -25 10
20 48 30 90 23 4 0 31 21 60 49 30 28 63 50 75 50 12 0 34 5 50 11 15 6 55 13
88 15 78 4 115 18 115 44 0 31 35 25 60 -10 26 -37 40 -39 34 -4 -6 35 -29 68
-58 84 -30 16 -144 9 -156 -9 -6 -11 -15 -11 -46 0 -55 18 -63 28 -68 84 -9
90 73 294 146 364 21 19 38 43 38 52 0 10 5 21 10 24 6 3 10 15 10 26 0 10 4
27 9 37 61 116 84 197 78 272 -3 30 -6 56 -7 58 -2 1 -3 5 -5 10 -1 4 -7 20
-14 36 -6 16 -13 40 -14 55 -2 15 -6 32 -10 38 -5 7 1 17 13 23 11 6 18 15 16
19 -9 13 42 31 66 23 28 -8 62 -8 105 2 21 5 41 2 62 -8 28 -15 30 -15 24 0
-4 12 0 15 18 13 13 -2 29 -1 34 3 6 3 40 -6 75 -21 36 -16 75 -31 88 -35 20
-7 21 -5 12 19 -5 14 -10 28 -10 30 0 7 118 -3 130 -10 13 -8 70 -14 70 -7 0
2 -11 17 -25 34 -30 35 -34 72 -7 64 9 -3 29 -7 45 -10 15 -3 37 -8 48 -11 15
-5 20 -3 17 6 -8 23 20 42 50 35 15 -4 34 -7 42 -7 8 -1 30 -7 48 -15 18 -9
56 -19 85 -24 74 -12 140 -28 173 -41 16 -6 43 -13 59 -14 17 -2 50 -8 75 -14
73 -18 82 -20 140 -25 l55 -5 -25 19 c-14 11 -44 33 -67 48 -24 15 -43 32 -43
38 0 16 32 27 40 14 5 -7 11 -6 19 3 14 18 32 12 176 -57 143 -68 318 -140
485 -201 l65 -24 -39 34 -40 33 30 4 c16 2 45 0 64 -5 91 -22 126 -12 43 12
-27 8 -57 20 -68 27 -11 7 -49 24 -85 39 -36 15 -110 48 -165 75 -55 26 -137
64 -182 85 -45 21 -92 48 -104 61 -22 24 -22 24 -2 24 21 0 98 -24 193 -59 30
-12 64 -21 74 -21 17 0 15 5 -14 35 -19 19 -40 35 -47 35 -7 0 -13 4 -13 9 0
16 -67 50 -77 40 -12 -12 -43 -1 -43 15 0 6 -35 29 -77 51 -43 21 -84 45 -91
52 -15 14 -82 34 -93 27 -4 -2 -11 0 -14 6 -10 16 -277 190 -291 190 -7 0 -14
4 -16 8 -1 5 -30 26 -63 47 -96 62 -146 116 -95 102 16 -4 18 -2 10 13 -9 17
-67 56 -132 89 -42 21 -74 54 -59 59 7 2 40 -14 73 -37 33 -23 62 -40 65 -38
2 3 -47 38 -109 79 -62 42 -140 102 -173 135 -71 70 -238 204 -315 253 -30 19
-60 39 -66 45 -18 17 -264 247 -309 290 -99 93 -123 115 -128 115 -3 0 -41 23
-84 50 -43 28 -98 60 -123 71 -25 12 -61 29 -80 38 -19 9 -62 42 -95 74 -33
33 -72 65 -87 73 -16 8 -28 23 -28 32 0 10 -6 27 -14 38 -14 19 -15 18 -23 -4
-9 -23 -10 -23 -56 24 -26 26 -48 57 -48 68 -1 12 -3 35 -4 51 -1 17 5 41 13
55 18 33 83 82 99 76 7 -3 13 0 14 7 0 7 4 3 9 -8 8 -19 9 -19 9 2 2 48 153
133 236 133 14 0 25 4 25 10 0 13 58 42 70 35 6 -3 10 -1 10 5 0 23 -65 73
-135 105 -69 32 -100 40 -200 50 -96 10 -120 17 -205 60 -97 48 -109 51 -290
57 -99 4 -109 2 -175 -27z m2759 -2424 c21 -23 12 -49 -10 -30 -7 6 -11 15 -9
20 3 4 -3 12 -12 18 -15 9 -16 10 -2 11 9 0 24 -9 33 -19z m303 -302 c15 -6
43 -12 62 -15 18 -2 44 -13 57 -23 14 -11 37 -22 52 -26 15 -3 38 -15 52 -26
l25 -19 -35 6 c-55 9 -68 13 -140 46 -84 38 -110 53 -110 60 0 10 3 10 37 -3z
m-2202 -9 c5 -8 11 -8 20 0 8 7 21 7 38 1 14 -5 28 -7 31 -4 3 4 15 -2 25 -11
11 -10 24 -15 29 -12 31 19 85 -110 102 -244 4 -36 10 -76 13 -90 3 -14 8 -38
11 -55 2 -16 12 -59 22 -95 26 -99 23 -164 -16 -262 -18 -46 -39 -101 -47
-123 -8 -22 -27 -67 -43 -100 -15 -33 -39 -86 -53 -117 -14 -32 -30 -58 -35
-58 -5 0 -22 -11 -38 -25 -39 -34 -50 -32 -74 15 -30 60 -79 76 -138 46 -28
-14 -199 -21 -218 -8 -6 4 -16 22 -23 40 -12 28 -11 39 10 95 12 34 33 78 45
98 12 19 38 67 58 107 27 53 41 72 56 72 15 0 22 9 26 29 4 16 15 39 25 50 10
11 23 37 28 58 5 21 21 65 36 98 15 33 29 69 31 80 8 38 8 360 0 384 -6 16 -4
26 5 32 19 12 67 11 74 -1z m2500 -144 c22 -8 53 -17 68 -21 15 -3 25 -10 22
-15 -4 -6 -18 -7 -33 -4 -21 4 -24 3 -12 -5 13 -9 13 -11 -2 -11 -10 0 -18 5
-18 11 0 5 -4 8 -8 5 -11 -7 -72 31 -72 44 0 13 7 13 55 -4z m-2951 -912 c22
-9 20 -31 -3 -37 -24 -6 -31 0 -31 25 0 19 8 22 34 12z m659 -36 c9 -27 -4
-45 -29 -40 -29 5 -29 7 -6 31 20 23 29 25 35 9z m-13 -147 c0 -15 -15 -21
-39 -14 -17 4 -19 8 -9 14 18 12 48 11 48 0z m-119 -15 c-12 -14 -57 -27 -66
-18 -9 9 29 31 54 32 19 0 21 -3 12 -14z m-87 -32 c20 -8 21 -30 1 -38 -15 -5
-39 26 -28 38 8 7 8 7 27 0z"/>
<path d="M2071 4171 c10 -20 23 -47 29 -61 6 -14 8 -17 6 -8 -3 9 0 19 7 21
17 6 -23 80 -44 83 -14 2 -14 -2 2 -35z"/>
<path d="M3432 2494 c10 -10 20 -15 24 -12 3 4 -5 12 -18 18 -22 12 -22 12 -6
-6z"/>
<path d="M4020 1659 c0 -5 5 -7 10 -4 6 3 10 8 10 11 0 2 -4 4 -10 4 -5 0 -10
-5 -10 -11z"/>
</g>
</svg>
